<svg id="Layer_1" data-name="Layer 1" xmlns="http://www.w3.org/2000/svg" viewBox="0 0 1420 790"><defs><style>.cls-1{opacity:0.53;}.cls-2{fill:#e1e1e1;}.cls-3{fill:#bdbdbd;}.cls-4{fill:#d4253d;}</style></defs><title>Contact Us page</title><g class="cls-1"><path class="cls-2" d="M367.92,261.21l1.84-3.3-4.13.28,1.6-3.23c1.84-1.28,4.57-.05,5.68-2.49-0.29-1.65-2-.77-2.67-1.63a23.46,23.46,0,0,1-1.51-2.85c1.1-.51,2.21-1.43,3.32-1.45,1.81,0,3.15-1,4.48-1.77,2.76-1.66,5.31-3.67,8.18-5.71l-1.31-3,3.8-1.83a3.16,3.16,0,0,1,1.28-.66c3.55,0.6,4.79-1.94,6.17-4.37a16.73,16.73,0,0,1,1.09-1.58c4.4-2.32,8.75-1,12.89-1.63a5.27,5.27,0,0,1,2.27.63,9.92,9.92,0,0,0,9.26-1.21,20.65,20.65,0,0,1,9.88-3.82,7.54,7.54,0,0,0,5.52-2.74l2.51,0.52a12.77,12.77,0,0,1,8.25-6.24c1.9-.44,3.75-1.12,5.66-1.51,4.06-.83,7.62-2.89,11.23-4.72,5.21-2.66,10.36-5.39,15.7-7.8,3.37-1.52,6.4-3.81,9.6-5.7a37.43,37.43,0,0,1,12.08-4.92l-0.13-.14c0,2-1.79,2.76-3,3.52-3.88,2.37-8,4.41-12,6.6a49.09,49.09,0,0,0-5.29,3.43,48.25,48.25,0,0,1-9,4.74c-5.12,2.26-9.7,5.38-14.32,8.45a5.8,5.8,0,0,0-1,1,1.29,1.29,0,0,0,1.54,1.45c1.9-.19,3.94.29,5.64-1a0.8,0.8,0,0,1,.44-0.21c4,0.13,6.82-2.65,10.13-4.24a83.53,83.53,0,0,0,14.34-8.26,8.08,8.08,0,0,1,2.2-1c5.05-1.77,8.87-5.36,12.88-8.66,1.62-1.33,3-2.92,4.71-4.16a9.43,9.43,0,0,0,3.81-6.54l-0.1.11a13.61,13.61,0,0,0,2.31.1,1.74,1.74,0,0,0,1.65-1.87c0-1.36-1-1.28-2-1.25l0,0a10.71,10.71,0,0,1,1.71-1.71c3.83-2.42,7.3-5.44,11.68-6.93,3.24-1.1,5.7-3.78,9.14-4.51a2.56,2.56,0,0,0,1-1,9.31,9.31,0,0,1,7.79-3.63c1.4-4,5.47-3.39,8.21-5,1,0.8.33,1.23-.09,1.68a2.18,2.18,0,0,0-.37.32c-2.35,4.34-6.4,6.62-10.59,8.76a16.09,16.09,0,0,0-2.2,1.89,12.88,12.88,0,0,1-3.61,2.4c-1.42.51-2.55,1.9-3.73,3s-2.16,2-2,3.95a4.59,4.59,0,0,0,1.58.6,10.94,10.94,0,0,0,7.51-3.1c3.61-3.34,8-5.56,11.83-8.59a44.28,44.28,0,0,1,8.38-4.87,1.65,1.65,0,0,0,.25.84,3.3,3.3,0,0,0,1.2.16,0.67,0.67,0,0,0,0-.38,1.89,1.89,0,0,0-.7-0.44,3.92,3.92,0,0,0-.93,0c0.57-.55,1.06-1.43,1.72-1.59,2.94-.69,4.82-2.72,6.31-5a16.54,16.54,0,0,1,4.59-4.58,37.87,37.87,0,0,0,4-3.43,4.78,4.78,0,0,0,.53-1.71,5.89,5.89,0,0,0-1.93,0c-2.69,1.11-5.38,2.24-8,3.52a15.15,15.15,0,0,0-2.66,2.09,22.12,22.12,0,0,1-7.59,4.18,2,2,0,0,1-.87-0.32c0.58-2.29,3.37-2.36,4.31-4.26l-0.14.07c0.59-.46,1.76-1.09,1.68-1.35a2.55,2.55,0,0,1,2-3.41c3.31-.8,5.66-3,8.25-4.87,0.91-.66,2-1.1,2.95-1.69a4.77,4.77,0,0,0,1.46-1.19,16.34,16.34,0,0,1,8.48-6.21,16.55,16.55,0,0,0,4.39-2.92c0.9-.71,1.46-0.23,2.11.25l-0.28.12,0.2-.21,2.89-.94-0.11-.11-3.48,3.79c1.09,2.26,1.8,2.77,3.11,2a57.62,57.62,0,0,0,5.37-3.36c1.31-.93,2.31-2.33,4.12-2.45a1.34,1.34,0,0,0,.83-0.45,21.4,21.4,0,0,1,7.25-5.66c1.2-2.75,3.77-2.73,6.11-2.86,0.59-1.81-.77-1.55-1.58-1.85l0.11,0.11c1.87-1.25,3.71-2.55,5.62-3.74,1.23-.76,2.55-1.47,4.09-0.95a1.64,1.64,0,0,0,2.11-.63c0.92-1.3,2.55-1.9,3.28-3.47a2.06,2.06,0,0,1,2.59-.8l-0.09-.12a17.42,17.42,0,0,0-1.14,1.58c-1.09,1.92-.45,3.38,1.36,4.78,2.44-1.89,4.93-3.59,7.16-5.6,2.84-2.56,5.9-3.86,9.71-2.75a2.7,2.7,0,0,0,3.3-1.41,4.27,4.27,0,0,0,.12-1.78l-1.7-.15a1.43,1.43,0,0,1,0-.75c0.75-.61,1.54-1.17,2.33-1.72,1.19-.82,2.46-1.53,3.58-2.44a17,17,0,0,1,5.71-3.38,41.75,41.75,0,0,0,5.66-2.27c1.78-.85,2.94-2.94,4.55-4.27a15.87,15.87,0,0,1,4.15-2.46,16.13,16.13,0,0,0,6.69-4.67c2.59,2.64,3.76,2.54,5.68-.29a10.84,10.84,0,0,1,.88-1l-0.09-.1,0.41,0.72,0.71-.72-0.1.09c1.39-1.1,2.74-2.25,4.17-3.3,1.93-1.42,4.29-1.08,6.47-1.37a2.41,2.41,0,0,1,1.5,1.1c0.79,1,1.44,2.17,2.15,3.27-0.48,1.51-1.05,3-1.41,4.53a1.51,1.51,0,0,0,1.82,1.7,3.58,3.58,0,0,0,1.38-.4,38.3,38.3,0,0,0,5.78-4.42c1.75-1.87,3.49-2.84,5.92-1.91,2.73-2,5-4.52,8.33-5.26,3.1-2.87,7.32-4.3,10-7.77l-0.12,0a5.39,5.39,0,0,0,1,2,9.81,9.81,0,0,0,2.54,1.1l6.46-2.84a15,15,0,0,0,1.19,1.87,2.21,2.21,0,0,0,3,.68c1.26-.64,2.24-1.93,3.89-1.63l-0.09-.17a14.93,14.93,0,0,1-8.84,5.73,32.46,32.46,0,0,0-9.16,4.56c-0.93.6-2.11,1.5-2.28,2.42-0.46,2.5-2.17,3.34-4.13,4.35-3.1,1.6-5.61,3.86-6.36,7.55a1.47,1.47,0,0,0,1.85,1.95c1.9-.29,3.79-0.6,5.94-0.94,0.65-.89,1.45-1.91,2.18-3,2.41-3.53,6-4.76,10-5.09,1-.08,2,0.19,2.62-0.74a17.12,17.12,0,0,0,1.37-2.49,5.68,5.68,0,0,0,.29-1.25,2.67,2.67,0,0,1,1.1-.1c3.15,1.55,5.28-.05,7.18-2.32,0.52-.62.89-1.36,1.36-2a3.91,3.91,0,0,1,1.18-1.52c3.94-1.55,4.64-6.17,7.94-8.33a1.72,1.72,0,0,0,0-1.67,2,2,0,0,0-1.73-.24,7.22,7.22,0,0,0-3.7,3,21.6,21.6,0,0,1-2,2.25l-3.85-3.26,0.15,0.08c3-1.92,6.29-3.35,8.72-6.09a10.46,10.46,0,0,1,2.53-1.43c2.09-1.26,4.16-2.55,6.23-3.84,1.31-.81,2.26-2.43,4.26-1.65a2,2,0,0,0,1.49-1c0.84-1.57,1.5-3.23,2.24-4.89,1-.36,2.39-0.45,3-1.19a25.52,25.52,0,0,0,2.42-4.57L792,41.81a16.47,16.47,0,0,1,.29,4.2c-0.56,3.11.94,5.31,2.73,7.48L799.56,59A3.37,3.37,0,0,0,803,57.49c1.52-2.1,3.15-4.11,4.7-6.12,2.19,0.27,1.89,2.65,3.62,3.66h5.19c1,2.67,2.12,5.11-.07,7.74-0.42.51-.28,1.49-0.4,2.3,2,1.1,4,.5,5.91.67l-0.09-.07a9.63,9.63,0,0,1,2.06,2.08c1.7,3.34,4.68,3.5,7.53,2.66a21.52,21.52,0,0,1,7.22-.82,5.5,5.5,0,0,0,4.43-1.65c1.93-2,4-3.7,5.1-6.45,1-2.44,3.21-4,5.07-5.57,3.92-.08,5.11,3.34,7.66,5.22l-3.79,3.06c-0.05,1.4.39,2.88-1.11,4-0.91.67-.7,1.75-0.16,2.66a2.52,2.52,0,0,0,2.85,1.39c1.12-.23,2.24-0.46,3.36-0.67a6.72,6.72,0,0,0,5.37-4.47A8.51,8.51,0,0,1,869.52,64c1.17-1.2,1.68-3.05,2.56-4.8l4.75-1.47a6,6,0,0,1,5-5.59c1.1-.26,2.16-0.73,3.23-1.1,3.54-1.19,4.27-2.14,4.87-6.28l-4.77-3.33,1.32-5.81c-1.2-1.5-2.89-2.13-4.55-2.8a47.33,47.33,0,0,0-5-1.94c-1.86-.51-3.8-0.72-6.06-1.13A22.55,22.55,0,0,0,869,28.11c-0.77-.57-1.63-1-2.47-1.52l-0.38-4-0.06.13c2.79-.43,5.51-0.63,7.81,1.54a1.72,1.72,0,0,0,1.36.44c2.3-.65,3.58.58,5,2.16a5.39,5.39,0,0,0,3.07,1.24c2.09,0.34,4.22.45,6.34,0.62a4.38,4.38,0,0,0,1.89,0c2.09-.85,4.22-0.21,6.32-0.32,1.51-.08,2.42.78,3.39,1.78-0.16,1.19-.7,2.53-0.38,3.63,0.26,0.9,1.53,1.52,2.35,2.26,0.2,0.87-.57,1-1,1.43-1.77,1.53-2.05,2.24-.72,4.07a5.43,5.43,0,0,1,1.1,4.09c-0.29,2.57-.56,5.14-0.85,7.91,1,1,2.54,1.72,2.91,3.55a2.61,2.61,0,0,0,1.59,1.7,6.66,6.66,0,0,1,4.39,3.62,1.63,1.63,0,0,0,2,1,2,2,0,0,0,1.37-2.32,20.75,20.75,0,0,0-.53-2.89c-0.14-.78-0.27-1.56-0.43-2.52,3.29-1.3,5.89-.19,8.3,1.63,1.27,1,2.38,2.11,3.71,3.31,0.26,2.41.26,2.41,2.86,4.69l13-6.76c0.77,0.2,1.86.54,3,.78,2.64,0.58,3.24.27,4.62-2.25,0.31-.56.59-1.13,1-1.83,2.38-.3,5.08.06,6.1-3.83,0.64,1.55,1,2,.94,2.34-0.69,3.15-.9,6.44-2.6,9.32-0.41.7-.62,1.51-1,2.23-1.74,3.31-1.11,6.72-.23,10,0.35,1.34,1.52,2.46,2.42,3.84A36.9,36.9,0,0,1,951,88.31a31.74,31.74,0,0,0-3.47,7.42,19.69,19.69,0,0,1-3.53,7.43,7.38,7.38,0,0,0-1.65,3.48c-0.37,3,1.26,5.62,1.64,8.52,0.23,1.75,1.67,3.13,3.34,4a3,3,0,0,1,.65.71c1.06,3.41-.32,6.67-0.66,10a4.56,4.56,0,0,1-2.95,3.63,48.33,48.33,0,0,0-4.73,2.57c-3.45,2-5.67,4.85-5.8,9,0,0.48-.18,1-0.25,1.44a3.23,3.23,0,0,0,.21.79l4.16,3.14-3.75,5.05c-0.08,2.39,2,2.41,3.18,3.39l-0.55,1.34,0.09-.4,0,0.28c-0.74,1-1.85.81-2.89,0.83l0.08,0H933l0.13-.11q0,0.58,0,1.16L933,162c-0.44,1.82-2.69,1.73-3.43,3.34,0.09,1,.07,2.41,1.35,2.68a6.23,6.23,0,0,0,5.51-1,4.19,4.19,0,0,0,1.13-1.54c1.24-3,3.35-5.39,5-8.08a17.84,17.84,0,0,1,5.46-5.31,3.57,3.57,0,0,1,4.52.18l0.22,0.12-0.35-.08,1.18-.64a2,2,0,0,1,.64.72c-0.63,3.27,1.17,5.87,2.37,8.63l0.12-.05L955.63,162l0.06-.08c-1.72.87-.45,2.24-0.55,3.4-1.24.65-2.82,0.9-3.28,2.56l-0.87.52a1,1,0,0,0,.37.08,6.46,6.46,0,0,0,.37-0.73l1.78,0.89c-0.71.88-1.26,1.6-1.85,2.29a4,4,0,0,0-.93,2.95,5,5,0,0,1-1.86,4.37c-0.8.54-1.13,1.76-1.53,2.43l2.51,3.92c-0.28.11-1-.12-0.44,0.61l0.35-.7A8.71,8.71,0,0,1,951,185c1,0.55,1.7.43,2.07-.76a1.73,1.73,0,0,1,.67-0.52l-0.12-.1a15.67,15.67,0,0,1-.9,2.73,15.13,15.13,0,0,1-1.74,2.22c1.58,2.88,1.7,3,.18,5.25-1,1.45-1,3.32-2.39,4.59-0.71.62,0.5,2.63,1.53,2.42a5.52,5.52,0,0,1,4.6.92v3.11a4.53,4.53,0,0,1-1.41,0c-1.59-.58-3.15-1.16-4.35.69l0.86,1.82-4.66,1.93c0.25,1.94,1.4,2.88,2.47,3.89l-0.09-.09a30.29,30.29,0,0,0,.25,3.19c0.14,0.8-.49.69-0.82,0.93-2.36,1.75-2.71,4.36-2.91,7-0.09,1.23,1.89,2.44,2.89,1.64,2.43-1.93,5.38-2.21,8.2-3,1.74-1,1.65-4.12,4.67-4,0.11,2.93-.88,5.22-3.58,6.52,1,2.57,4.81.71,5.3,3.74a6,6,0,0,1-5.93-.53,1.47,1.47,0,0,0-2.45.67c0.69,0.82,1.37,1.7,2.13,2.5a3,3,0,0,0,1.51,1.16c3.75-.15,5.9,3.28,9.23,4,0.84,0.19,1.13,1.71.45,2a3.87,3.87,0,0,0-2.51,3.25,13,13,0,0,1-1.71,3.09c3.91,2.27,7.7,4,12,4.13a3.86,3.86,0,0,0,2.31-.48,32.73,32.73,0,0,1,7.23-3.86,7.7,7.7,0,0,0,2.29-1.69c2.22-2.18,4.14-2.26,6.14-.16,1,1,2,2.09,3.28,3.4l-0.56,3.79,2.41,1.33,15.45-17.91,4,4,4.58-3.62a3,3,0,0,1,1.16.27c1.11,1.15,2.1,2.43,3.27,3.51s3.06,0,4.54,1.22c0.91,0.75,2.77.35,4.48,0.48,0.41,1.53,0,3.12-.17,4.68s-0.73,2.87-.77,4.32c-0.07,2.72-.5,5.21-2.85,7-2,5.33-6.44,8.94-9.76,13.33a3.74,3.74,0,0,0-1.07,2.56,8.75,8.75,0,0,1-2.52,7.16,3.21,3.21,0,0,0-.48.85c-1.27,2.39-.7,4.13,1.75,5.1a15.9,15.9,0,0,0,2.38.55l-0.1-.12a2.67,2.67,0,0,0-.57,1.28,6.66,6.66,0,0,1-.33,5.9l4.84,6.49c2.18,0,4.42-.22,6.84,1.55a2.38,2.38,0,0,1-1,2.29c-1,.88-1.81,1.88-2.77,2.76a6.33,6.33,0,0,0-1.91,4.56l2.64,1.87-1.56,3c0.35,1.43,3,3.7,4.24,3.63a1.88,1.88,0,0,0,1.32-.5c1.68-2.4,3.94-1.8,6.16-1.24,1.72,0.44,3.39,1,5,1.54l2.84-1.81a5.25,5.25,0,0,1,3.5,3.2c0,1.6-1.42,1.71-2.2,2.45-2,1.91-3.83,4-6.86,4.35a4.64,4.64,0,0,0-2,1.39,50.25,50.25,0,0,0-3.92,3.66,26.12,26.12,0,0,0-2.17,3c0,2,3.19,1.32,1.55,3.44a4.07,4.07,0,0,0,1.2.38,12.21,12.21,0,0,0,5.77-2.2c3.28-2.28,6.67-4.42,10.92-5s8.13-3.19,11.72-5.74a11.42,11.42,0,0,1,4.38-1.86c1.81-.4,3.83-0.37,5.46-1.62a4.1,4.1,0,0,1,3.76-.46l-0.1-.09a2.85,2.85,0,0,0-.32,1.37c2.05,2.26,3.07,5.38,6.12,7.22,1.89-.05,4.07-0.13,5.1-2.46s0.43-3.65-2.34-6.29a2.76,2.76,0,0,1,3.51-.28c0.81,0.55,1.58,1.16,2.35,1.77s1.51,1.25,2.16,1.79c0,1.64,0,2.94,0,4.24a7.32,7.32,0,0,0,1.12,4.2,18.06,18.06,0,0,1,1.3,2.07c1.27,3,2.4,5.79,2,9.31a75.79,75.79,0,0,1-2.9,14.34c-1.49,4.63-2,9.55-3.19,14.29a44.18,44.18,0,0,1-2.32,6.41c-1.81,4.36-3.77,8.66-5.55,13s-3.92,8.21-5.95,12.29c-2.79,5.62-7,10.12-10.39,15.27-2.31,3.53-4.62,7.08-6.66,10.77a57.12,57.12,0,0,1-8.88,11.64,58.46,58.46,0,0,0-7.83,11.12,4.57,4.57,0,0,0-.51,1.36c-0.84,4-.84,4-3,7,0.2,0.54.39,1.16,0.66,1.75a3.65,3.65,0,0,1-.54,4.11,19.62,19.62,0,0,0-3.26,5.42c-0.48,1.29-.83,2.31-0.13,3.66a3.37,3.37,0,0,1-.61,3.68,43.86,43.86,0,0,1-3.76,4.48c-3,2.92-6.12,5.87-10.16,7.45a6.65,6.65,0,0,1-1.28.7c-3.15.38-5.13,2.58-7.37,4.47s-4.66,3.56-7,5.39c-3.3,2.63-6.85,5-9.45,8.42-3.41,1.16-5,4.49-7.78,6.47-2.59,1.86-4.72,4.37-7,6.66-3.55,3.6-7,7.35-10.59,10.87-3.14,3-6.65,5.7-9.1,9.36-1,1.48-3,1.68-3.59,3.8-0.43,1.58-2.08,2.86-3.24,4.22s-2.38,2.65-3.6,4a16.15,16.15,0,0,1-2.09,2.05c-3.44,2.53-5.64,6.28-8.87,9a1.52,1.52,0,0,0-.34.35c-4.72,7.88-12.54,12.65-19,18.74-4.15,3.9-8.74,7.34-13.14,11-1,2.13-3.66,2.22-4.89,4.41-1,1.83-3.42,2.88-5.17,4.33s-3.33,3.1-5.18,4.39a12.59,12.59,0,0,0-3.79,4.4,31.63,31.63,0,0,1-7.75,8.73c-4,3.34-7.78,6.9-12,9.8a7.35,7.35,0,0,1-2.61,6.73c-4.42,3.6-8.37,7.71-12.8,11.28-0.38.31-.81,0.55-1.22,0.82l-0.16-.19,0.25,0.13c-4.48,3.44-8.95,6.9-13.44,10.32-3.6,2.74-7.22,5.44-10.84,8.16-1.47-.08-1.29,1.7-2.35,2.08l0.06,0.14c-0.39-.65-0.78-0.79-1.18,0l0.1-.15q0,0.62,0,1.23l-0.16-.06c-5.1,4-10.21,8.08-15.29,12.15-6.22,5-12,10.55-19,14.6-1.63.95-2.78,2.7-4.23,4a36,36,0,0,1-3.83,3c-1.75,1.18-3.74,2-5.37,3.35-4.45,3.6-9.25,6.7-14,9.91-4.44,3-8.69,6.32-13.1,9.38-2.94,2-6,4-9.07,5.73-1.53.87-3.38,1.15-5,1.87-0.85.38-2,1-2.18,1.76-0.47,2.06-2.28,2.22-3.6,3-2.67,1.54-3.11,1.26-4.24-2.35,1-1.12,2-2.34,3.08-3.54,1.71-1.91,3.66-3.16,6.43-2.75a4,4,0,0,0,2.76-.65c3.2-2.51,6.27-5.18,9.39-7.8a3.39,3.39,0,0,0,.39-0.53l-0.36-3.69a2.78,2.78,0,0,0-1.31-.05q-8,4.07-16,8.25c-3.58,1.87-7.4,3.19-11,5.07-2.74,1.44-5.46,2.94-8.25,4.3a26.13,26.13,0,0,1-3.62,1.17c-0.11-.6-0.14-0.92-0.22-1.22a3.57,3.57,0,0,0-.56-1.77,3.65,3.65,0,0,0-2.25-.68,6.45,6.45,0,0,0-2.18.9c-3.28,1.59-6.62,2.84-10.56,1.65l-0.94,3c-5,2.25-10.19,4.61-15.41,6.85a7.1,7.1,0,0,1-3.32.49c-1.25-.12-2.45-0.88-3.7-0.95-1-.06-2.1.49-3.65,0.9a10.06,10.06,0,0,1,1-2.13,3,3,0,0,0,.64-3.59c-0.44-1-.77-2,0-2.77,1.8-1.82,1.43-3.83.89-5.92-0.16-.62-0.34-1.24-0.51-1.86L670,733l-0.34.13c-1.39-1.73-3.66-1.1-5.4-2-0.55-.27-1.57.21-2.3,0.53-1.78.79-3.49,1.75-5.29,2.49a7.77,7.77,0,0,1-2.81.47c-1.36,0-1.48-.19-2.53-2.67,1.94-1.88,3.71-4.13,2.26-7.15-1.28-2.68-2.63-5.43-7.39-4.8a44.45,44.45,0,0,0,3.9-3.47c1.56-1.8.65-4.13-1.74-4.2s-5-.12-7.15,1.13c-1.81,1-3.45,2.34-5.61,3.83L633,717a2.37,2.37,0,0,1-.42-0.94c0.45-2.5.94-5,1.46-7.68a7.37,7.37,0,0,1-5.08-5.61,2.74,2.74,0,0,1,.36-2.25c1.69-1.57,1.41-3.51,1.45-5.36l-2.33-2.39,0.28-.09-0.31.17a85.86,85.86,0,0,0-17.81,6.47c-1.73.89-3.44,1.82-5.15,2.73a0.87,0.87,0,0,1,.06-1.57c1.09-.71,2.26-1.29,3.36-2,1.86-1.14,3.41-2.54,3.57-5.19l-2.18-3c0.29-.86.34-2,1-2.6a3.59,3.59,0,0,0,.84-4.4,5.89,5.89,0,0,1,0-1.94c1.35-1,2.69-1.94,3.9-3a4.91,4.91,0,0,0,1.81-3.83c0-1.52-.7-2.43-1.87-3.51-1.89.7-4,1.42-4.91,3.46a5.27,5.27,0,0,1-4.86,3.45c-2.88.18-4.35,1.84-5,4.4a32.1,32.1,0,0,1-3.34,1.15,7.79,7.79,0,0,0-3.32,1.88,25.65,25.65,0,0,1-4.86,3.11c-5.07,2.57-10.11,5.19-15,8.15-1.25.76-2.32,1.84-3.62,2.5s-2.21,1.95-3.91,1.76a2.11,2.11,0,0,0-1.6.83c-2.36,3.38-6.22,4.65-9.45,6.78-4.88,3.21-9.9,6.21-14.76,9.44a32.16,32.16,0,0,0-3.92,3.66,35,35,0,0,1-2.86,2.62c-0.79.6-1.61,0.92-1.3,2.25,0.09,0.37-1,1.27-1.69,1.51a45.41,45.41,0,0,1-7.48,2.18,18.62,18.62,0,0,0-7.27,2.63c-1.57,1-3.12,2.48-5.32,1.91l0,0.11,0.36-2.66c-4-1.27-7.74-2.75-12-.19l-3-2.18a4.44,4.44,0,0,0-3.57,1.31,2.11,2.11,0,0,1-2.72.25,3.3,3.3,0,0,0-3.67-.26,10.71,10.71,0,0,1-5.62.91,3.9,3.9,0,0,1-.94-4.19c1-2.64.51-5.14-.5-7.55a5.94,5.94,0,0,1,0-4.68c1.13-3.22.61-4.23-2-6.35a3.85,3.85,0,0,0-3.18-.9,18.5,18.5,0,0,0-3.71,1.18c-0.75.3-1.41,0.83-2.15,1.18-3.91,1.8-4.67.73-6.2-1.56-0.36-.54-0.75-1.05-1.14-1.59-4-1.21-7.73-1.09-11.33,1.12a4.3,4.3,0,0,1-2.3.67,18.43,18.43,0,0,0-7.62,1.51c-3.32,1.29-6.33,1.11-9.16-1.29a7,7,0,0,0-4-1.71c-1.67-.15-2-1.18-1.19-2.78,1.05-2,2.14-4,3.29-6a4.47,4.47,0,0,0,.26-4.59c-0.58-1.25-.38-2.86-0.57-4.31-0.38-2.91-1.93-4.45-4.86-4.43-2.61,0-5.21.37-7.83,0.51a13.42,13.42,0,0,1-3.36-.09c-2.4-.49-4.74-1-7.25-0.54a4.59,4.59,0,0,1-3.22-.76c-2.61-1.93-5.77-3-8-5.54a6.94,6.94,0,0,0-5.06-2.63,6,6,0,0,1-2.12-1.07c-1.48-3.21-.45-6.14,1.12-8.87,0.8-1.39,1.58-2.77,2.32-4.2a14.44,14.44,0,0,1,3.24-3.64,10.17,10.17,0,0,0,2.91-5.34c-4.46-.15-8.86-1.43-12.43,2.15l-3-.73c0-1.15-.05-2.1,0-3,0.13-2.07.72-4.07-.18-6.19-0.81-1.91-.1-3.69,1.05-5.49,3.6-5.62,8-10.73,11.3-16.54,0.85-1.47,2.55-2.45,3.89-3.63s1.18-2.63-.63-3.26a25.75,25.75,0,0,0-3.17-.71c-4.22,2.87-5.53,8.35-10.49,10.56l-2.81-4.07a9.38,9.38,0,0,0-1.8,1.07c-2.66,2.65-5.25,5.36-7.9,8a4.84,4.84,0,0,0-1.45,4.89,9.39,9.39,0,0,1,.19,3.35,2.82,2.82,0,0,0,.56,2.25c1.05,1.38.22,2.48-.64,3.47a1.86,1.86,0,0,1-2.64.34c-1.4-1.07-2.66-2.31-4.13-3.61,0.67-2.62-.67-5.31.41-8a3.43,3.43,0,0,0-.47-2.79c-1.77-2.45-1.44-4.89-.44-7.43a3.39,3.39,0,0,0,0-.81c-1.9-1.26-1.67-3.78-2.62-5.94-0.6-.18-1.2-0.38-1.8-0.55-4.34-1.22-4.34-1.22-7.78,1.38-0.87-1.1,0-1.92.63-2.54,1.82-1.86,3.58-3.78,5.37-5.66,3.48-3.65,7.39-6.89,11.06-10.36q6.24-5.88,12.35-11.89a1.85,1.85,0,0,0,.43-1.67,2,2,0,0,0-1.62-.73,43,43,0,0,0-4.33.57c-0.95.14-1.89,0.33-2.83,0.5-0.4-.48-0.69-0.85-1-1.21-0.62-.71-1.12-1.75-1.9-2a3.54,3.54,0,0,0-3.61,1c-1.29,1.24-2.42,2.65-3.61,4a38.17,38.17,0,0,1-2.91,3.29c-2.06,1.85-4.51,3.32-6.32,5.38s-2.93,4.63-4.45,6.92c-0.8,1.21-1.6,2.51-3.23,2.85a3.47,3.47,0,0,1-2.84-3.5c-0.1-1.32.75-2.31,1.91-3.18a26.85,26.85,0,0,0,4.21-4.1c1.91-2.22,3.6-4.62,6.33-6a10.21,10.21,0,0,0,2-2.09,6.63,6.63,0,0,1,2.13-1.88c2.64-.82,3.73-3.1,5.12-5.07a4.89,4.89,0,0,0,.26-5.15,26.27,26.27,0,0,0-3.23-4.3c-1.23-1.5-3-1.74-4.79-1.76-1.27-2.11-1.68-4-.73-6.22,1.05-2.41,2-4.8,4.82-5.81a15.19,15.19,0,0,0,3.64-2.39c2.52-1.85,5.12-3.46,8.31-3.9a7.3,7.3,0,0,0,2.29-.77c5.06-2.6,9.94-5.53,14.74-8.6,2.6-1.66,5.13-3.47,7.85-4.92,6.34-3.41,12-7.88,18-11.79a28.33,28.33,0,0,0,8.08-7.71,14.16,14.16,0,0,0,1-2.53c-3.86-.61-7.28-0.84-10.17,2-1.78,1.75-3.65,3.35-6.45,2.7l0.08,0.1c1.05-1,2.08-1.95,3.17-2.86,2.12-1.77,4.35-3.42,6.4-5.27,3.26-2.94,6.26-6.18,9.64-9a37.61,37.61,0,0,0,6.88-8.14,31.14,31.14,0,0,1,4.95-6c1.37-1.21,1.33-1.25,2-4.14-0.83-1-1.75-.6-2.62-0.1a76.17,76.17,0,0,0-14,10.5c-2,1.87-4.4,3.39-5.7,6a5.54,5.54,0,0,1-2.28,1.74,42.83,42.83,0,0,0-7.49,5.47,40.18,40.18,0,0,1-10.8,7.46c-0.82-.64-0.18-1.17.21-1.57q4.32-4.33,8.72-8.59a28.13,28.13,0,0,1,2.68-2.15c3.26-2.46,6.57-4.84,8-9,0.34-1,1.31-1.8,1.79-2.79a7.67,7.67,0,0,0,.38-2.17c-1-1.14-1.94-.5-2.64.09a65.1,65.1,0,0,0-5.82,5.22A25.9,25.9,0,0,1,404,499c-1.54.91-2.87,2.16-4.38,3.14a12.74,12.74,0,0,1-2.69.87c0.78-2.47,2.55-3.48,3.66-4.94s2.63-2.83,2.64-4.83a1.15,1.15,0,0,0-1.83-.15c-1.07.74-2.06,1.6-3.07,2.43a32.41,32.41,0,0,1-6.78,4.79,16.72,16.72,0,0,0-3.51,2.6c-2.5,2.1-4.85,4.4-7.44,6.37-4.68,3.56-8.85,7.72-13.35,11.47-1,.83-1.81,2-3.23,2a2.39,2.39,0,0,1-1.75-.38,3.18,3.18,0,0,1-.51-2.22,3.73,3.73,0,0,1,1.3-2c4.43-3.44,7.31-8.26,11.15-12.23a20,20,0,0,0,3.86-5,15.45,15.45,0,0,1,3.1-3.75,68.93,68.93,0,0,1,5.39-5c1.93-1.57,2.63-3.6,3-6.06l-2.68-1.78a4.27,4.27,0,0,0-1.18.39q-9.59,8-19.16,16.07a17.08,17.08,0,0,1-2,1.46c-2.09,1.29-2.66,1.13-5.1-1.46,3.91-4.41,8.13-8.73,9.58-15.15a6.53,6.53,0,0,0-1.72,0c-4,1.2-7,4.11-10.32,6.45-1.86,1.31-3.78,2.53-5.67,3.79l0.08,0.1c0.35-2.35,2.51-3.25,3.9-4.73,3.1-3.32,6.29-6.53,8.38-10.67a14,14,0,0,1,2.94-3.79c2.36-2.2,4-4.57,3.7-8a22.77,22.77,0,0,1,.35-4.23c-2.06-2.81-4.84-2.74-7.48-1.65a32.43,32.43,0,0,1-8.39,2.37,12.1,12.1,0,0,0-4.1,1.5,5.69,5.69,0,0,1-6.79-.56c-1.27-1-2.51-2.06-3.72-3.14s-2.6-2.44-4-3.8a18.75,18.75,0,0,0-3.08,1.48,5.08,5.08,0,0,1-5.48.63v0.14l1.19-4c-1.54-1.95-2.83-4.06-2.63-6.89,0.08-1.14-1-2.35-1.42-3.56-0.76-2.09-.93-4,0.76-5.93a12.19,12.19,0,0,0,2-3.87,2.46,2.46,0,0,0-2.37-3.4,9.86,9.86,0,0,0-3.67,1.09,49.28,49.28,0,0,0-5.51,3.18,13,13,0,0,1-6.44,2c-2.11.17-4,.1-5.13-1.87-0.92-1.55-2.74-.8-4.05-1.84a12.13,12.13,0,0,1,3-5.79c1.8-1.94,3.26-4.07,3.14-7.22l-4-2.8c-3.09-.45-4.43,2.51-7.52,3.67l2.89-4.16a1.88,1.88,0,0,0,.09-0.72c-0.73-3.67-1.32-4.17-4.69-4.08a18.89,18.89,0,0,0-2,.12c-1,.13-1.93.32-3,0.5a4,4,0,0,1-1.25-3.88c0.23-1.25.62-2.69,0.23-3.8-0.63-1.8-.45-3,1-4.26,0.49-.43.39-1.51,0.62-2.28,0.58-2,1.29-3.63,3.4-4.85,2.62-1.51,4.73-3.92,7.06-5.94l0.35,0.21-0.41-.14a21.85,21.85,0,0,0,6.39-4.29c1.84-1.92,4.27-3.26,6.32-5,1.45-1.24,2.82-2.47,3.27-4.68,0.38-1.89,2.51-3,4.14-3.87a17.38,17.38,0,0,0,2.77-1.72c1.26-1,2.52-2.08,4.32-2a2.82,2.82,0,0,0,1.35-.51c3.89-2.31,7.81-4.58,11.63-7a5.87,5.87,0,0,1,3-1.39,2.44,2.44,0,0,0,1.32-.59c5.94-4.79,12.91-8.1,18.77-13a9.83,9.83,0,0,1,2.32-1.79,9.57,9.57,0,0,0,4.6-4.22,8.74,8.74,0,0,1,5.34-4,11,11,0,0,0,4.8-3.08c2.37-2.42,5.32-4.28,8.07-6.32,1.77-1.32,3.05-2.87,3.23-5a1.64,1.64,0,0,0-2.34-.22c-2.85,1.6-5.72,3.17-8.45,5-2.3,1.5-4.86,2.55-6.92,4.52a5.62,5.62,0,0,1-4,1.41c-2-.23-3.45.59-5,1.6a23.31,23.31,0,0,1-3.35,2,3.87,3.87,0,0,1-2.32.28,2.36,2.36,0,0,0-3.09,1.65c-0.83,2.78-3.31,3.41-5.37,4.63-3.42-1.3-5.47,2.34-8.53,2.4a2.23,2.23,0,0,0-1.26.68c-5.39,5-11.88,8.59-17.68,13.07a4,4,0,0,1-2.17,1c-5.68.07-9.66,3.45-13.64,6.86a3.87,3.87,0,0,1-1.54,1.07c-2.71.44-4.75,2.07-6.9,3.56-3.22,2.23-6.39,4.53-9.72,6.58-2.26,1.4-4.35,2.85-5.68,5.24A5.77,5.77,0,0,1,281,384.9c-0.56-.83-1-1.62-1.59-2.34-1.39-1.78-2.67-3.57-5.27-3.91-1.88-.25-2.23-1.67-1.1-3.16,4.22-5.52,4.92-6.21,11.15-10.55,3.71-2.59,7.46-5.16,11.3-7.54,2.18-1.36,4.52-2.54,6.67-4a11,11,0,0,1,2.26-.87c0.9-.35,2.07-0.46,2.66-1.1,2.43-2.62,5.75-3.59,8.78-5.12a18.84,18.84,0,0,0,3.26-2.09,35.06,35.06,0,0,1,7.89-4.85,43.38,43.38,0,0,0,5.05-2.94,6,6,0,0,1,1.58-1.11c5-.86,8.18-5.09,12.61-7.06,2.18-1,4-2.81,6-4.18,3.76-2.55,7.4-5.35,11.39-7.47,5.19-2.75,9.82-6.31,14.79-9.36a23.55,23.55,0,0,0,2.71-2c4-3.34,8-6.62,12.71-9a9.25,9.25,0,0,0,4.49-6.11,2.89,2.89,0,0,0-.54-2.23,14.48,14.48,0,0,0-2.44-2l-27.93,15.67a35,35,0,0,0-3.37,2,90,90,0,0,1-10,6.11c-3.44,1.85-6.6,4.23-9.91,6.35a31.38,31.38,0,0,1-3,1.7c-6.87,3.41-13.74,6.81-20.09,11.16-2.69,1.84-5.7,3.2-8.47,4.93-3.32,2.06-6.55,4.26-9.8,6.44s-6.73,4.55-10.07,6.88c-2,1.39-3.92,2.86-5.87,4.28-2.8-3.22-3.77-3.8-7-3.7a5.61,5.61,0,0,0-3.23.84c-3,2.54-6.86,3.7-10,6a12,12,0,0,0-4.16,4.66,30.52,30.52,0,0,1-3,4.32c-3.68-1.82-4.3-4.37-1.94-6.94a12,12,0,0,0,2-2.15,3.61,3.61,0,0,1,2.57-2,10.37,10.37,0,0,0,4.57-2.72c1.3-1.17,2.4-2.5,4.34-3,1.22-.32,2.15-1.89,3.14-3s1.82-2.29,3.49-2.45a2.56,2.56,0,0,0,1.61-.92c1.55-2.07,3.84-3,6-4.06a38.54,38.54,0,0,0,9.48-6.61,22.71,22.71,0,0,0,4.09-6,4.11,4.11,0,0,1,1.27-1.81c2.92-2,6.25-2.64,9.62-3.24a18.84,18.84,0,0,0,3.75-.82c2.42-1,5.07-1.76,7.05-3.34,3.08-2.47,6.65-3.93,10-5.87a41.22,41.22,0,0,0,6.14-3.88c1.93-1.64,4.19-2.48,6.37-3.55a12.7,12.7,0,0,0,5.49-4.72,12.41,12.41,0,0,0,.87-2.85c-3.95-.79-6.77,1.33-9.68,2.93-1,.56-1.86,1.29-3.1,1.1l-0.08-.28,0.16,0.33a1.75,1.75,0,0,1-2.15.84l0.12,0.15c-0.06-1.28-.13-2.57-0.17-3.49a72.87,72.87,0,0,0,6.1-4.37c1.63-1.44,4.15-.78,5.5-2.63,2.89-.91,4.53-3.62,7.05-5s5.47-1.91,8-3.23a60.1,60.1,0,0,0,6.39-4.39A8.41,8.41,0,0,1,370,274c2.91-.71,4.27-2.72,5.07-5.61l-1.63-2.8a9.18,9.18,0,0,1,3.84-4.11c0.82-.53,1.58-1.14,2.36-1.73a2.86,2.86,0,0,0,.9-3.87c-4.94-1.12-5.11-1.51-8.14,3.52L368,261.17Zm46.25,336,0.22-.09-0.09.22-0.29.15ZM428,231.65l0.22-.34-0.18.4-0.33.1Zm588.68,73.84-0.23.71,0.13-.82,0.77-.12-0.3-.48ZM877.88,60.58a20.77,20.77,0,0,0-3.33,0,1.9,1.9,0,0,0-1.21,1.19c-0.24.88,0.62,1,1.21,1a3.89,3.89,0,0,0,3.64-1.89l0.56-.76ZM367.93,626.8a11.2,11.2,0,0,0,2-1.28c2.54-2.52,5-5.17,7.55-7.66,3.62-3.5,6.67-7.62,11.39-10a10,10,0,0,0,3.91-4.3,10.11,10.11,0,0,1,2.15-2.53c3.67-3.24,7.42-6.38,11.06-9.64a12.16,12.16,0,0,0,1.65-2.82c-1,0-1.79-.23-2.21,0a5.11,5.11,0,0,0-2,2,5.47,5.47,0,0,1-2.61,2.78,34.27,34.27,0,0,0-3.34,2c-2.11,1.52-4.17,3.12-6.24,4.69-0.53,2.82-3,3.51-5.06,4.72a9.68,9.68,0,0,0-1.57,1.16,187.29,187.29,0,0,0-14.54,15.25,13.27,13.27,0,0,0-2.14,3.27,5.4,5.4,0,0,0,.1,2.28,1.3,1.3,0,0,0-.36.11,0.51,0.51,0,0,0-.08.25Zm252.48,56.14,0.07,0.28-0.17-.31a26.71,26.71,0,0,1,3.94-1.76,11.07,11.07,0,0,0,3.1-1.21A95.92,95.92,0,0,1,644,672a8.49,8.49,0,0,0,2.11-1.09c1.55-1.18,3-2.44,4.53-3.7s1.45-1.56.23-4.31a27.85,27.85,0,0,0-2.81.25,2.56,2.56,0,0,0-1.69.74c-1,2.39-3.38,3-5.29,4-5.57,3-11.29,5.67-16.94,8.5a33.49,33.49,0,0,0-3.38,2,9.06,9.06,0,0,0-1.83,1.6,1.4,1.4,0,0,0,.25,2.13A13.85,13.85,0,0,0,620.41,682.94ZM606.86,145l0.05,0.27-0.14-.15c1.78-1.41,3.56-2.81,5.32-4.23a9,9,0,0,1,1.83-1.59c4.06-1.64,6.89-4.86,10-7.65a12.42,12.42,0,0,1,3.47-2.65c4.42-1.63,7.48-5.16,11.19-7.75a45.21,45.21,0,0,0,6.06-5.68,2.3,2.3,0,0,0,.28-1.82,1.46,1.46,0,0,0-2-1,16.73,16.73,0,0,0-6.76,3.65,39.66,39.66,0,0,1-5.78,4.47c-2,1.3-3.21,3.62-5.77,4.3a5,5,0,0,0-2.56,2.18c-1.21,2-3,2.86-5,3.65a12.33,12.33,0,0,0-3.43,1.82c-2.48,2.09-4.81,4.37-7.23,6.54a14.33,14.33,0,0,1-2.36,1.73c-3.93,2.27-7.91,4.47-11.84,6.74-2.83,1.63-5.66,3.24-8.4,5-2.18,1.41-4.64,2.71-6.22,4.67-1.82,2.27-4.24,3.55-6.39,5.25-3.57,2.83-7.28,5.49-11,8.14-2.5,1.78-5,3.53-7.66,5.1-1.3.77-2.51,1.43-3.08,3-0.38,1-1.44,1.12-2.31,1.57-4.29,2.2-9.11,3.58-12.34,7.54a7.06,7.06,0,0,1-1.51,1.23c-3.48,2.4-7,4.75-10.44,7.19a24,24,0,0,0-2.43,2.24,1.69,1.69,0,0,0,2.08,1.15,28.81,28.81,0,0,0,9.23-4.28c4.8-3.26,9.49-6.67,14.82-9.18a30,30,0,0,0,10.44-7.92,14.47,14.47,0,0,1,8.68-5,7.72,7.72,0,0,0,3.88-1.78,11.76,11.76,0,0,1,3.58-2.37c2.76-1.4,5.76-2.57,8.08-4.52s4.62-4.33,7.11-6.37c3-2.47,6.33-4.52,9.35-7S603.82,147.21,606.86,145ZM380.44,262.83c0.52,1.87,1.65,2.38,2.76,2.18,3.88-.68,7.77-1.71,10.46-4.74a9.62,9.62,0,0,1,6.19-3.47c3.24-.35,5.19-2.38,7.28-4.37a3.76,3.76,0,0,0,.87-1.71,1.59,1.59,0,0,0-.17-1.34,2.12,2.12,0,0,0-1.7-.4c-4.23,2.05-8.42,4.21-12.62,6.33a17.74,17.74,0,0,1-2.17,1A36.45,36.45,0,0,0,380.44,262.83Zm27.65,15.34c2.31,2,2.31,1.94,3.31,2,5.29,0.24,9.68-2.29,14.06-4.7a7.35,7.35,0,0,0,2.2-2.54,1.58,1.58,0,0,0-.33-2.18c-0.49-.41-1-0.75-1.76-1.29-2.81,1.07-5.76,1.94-8.47,3.29C414.13,274.23,411.37,276.16,408.09,278.17ZM618.64,668.3c2.31,3.35,2.28,3.25,5.43,2.32a24.39,24.39,0,0,0,6.2-2.78c2.34-1.48,4.74-2.87,7.11-4.3,1.34-.8,1.92-2.09,1.43-3.17s-2.07-1.46-3.46-.93a9.85,9.85,0,0,0-1.26.74c-1.56.88-3.19,1.66-4.68,2.65-2.2,1.46-4.39,2.8-7.18,2.08ZM414.67,245a7.69,7.69,0,0,0,1.81,1.14c2.7,0.65,5.09-.32,7.38-1.63,1-.56,1.9-1.61,2.9-1.69,2.11-.16,3.57-1.48,5.31-2.3a2,2,0,0,0,.55-0.65v-3.1a7.43,7.43,0,0,0-2.48,0c-2.68,1.11-5.3,2.36-7.94,3.57-1.77.81-3.58,1.56-5.28,2.5A13.06,13.06,0,0,0,414.67,245Zm-18.9,402,4,3.59a5.55,5.55,0,0,0,4.25-5.08c0.25-1.71-.2-3-1.73-3.55-1.33-.52-2.68-1.24-4.52-0.53Zm25.43-49.7c-2.89,1.12-4.87,1.58-6.43,3.23-1.21,1.29-2.6,2.57-4.55,2.61-3.57.07-6,2.17-8.44,4.43a3.3,3.3,0,0,0-.36,1.37,3.73,3.73,0,0,0,1.54.14q3.74-1.78,7.4-3.71c1.43-.76,2.72-1.94,4.23-2.38,2.2-.64,3.78-2.13,5.57-3.33C420.49,599.48,420.55,598.87,421.2,597.34Zm207-478.54c-3.1-.45-5.2-0.38-6.91,1-1.36,1.11-2.45,2.56-1.8,4.9,0.91-.1,2,0.1,2.64-0.37C624,122.87,625.68,121.14,628.19,118.8ZM838.51,72.5A5.3,5.3,0,0,0,833.07,74a2.91,2.91,0,0,0-.29,1.81,0.93,0.93,0,0,0,1.24,1C836.21,76.26,837.56,74.84,838.51,72.5ZM853.28,76c-0.09-.75-1.62-1.61-2.31-1.16a9.22,9.22,0,0,0-2.09,1.91,1.48,1.48,0,0,0,1,2.22A2.79,2.79,0,0,0,853.28,76ZM450.07,226.2c-2.14-.5-3.64,1.05-5.42,1.5-0.92.23-2.23,0.63-1.86,1.73,0.5,1.45,1.48,0,2.24,0C447.38,229.39,448.85,228.19,450.07,226.2Zm451.25,29a15.92,15.92,0,0,0-3.16,1.29,2,2,0,0,0-.23,1.66,1.49,1.49,0,0,0,1.19.51C900.89,258.66,900.85,257.17,901.32,255.23Zm168.55,72.12a7.79,7.79,0,0,0,1.93,1.63,1.75,1.75,0,0,0,1.56-.6,2.12,2.12,0,0,0-.06-1.69,1.29,1.29,0,0,0-1.15-.51A13.14,13.14,0,0,0,1069.87,327.35Zm-655-88.06c-1.58.1-3.18,0.13-4.07,2C413.31,240.95,413.31,240.95,414.82,239.3Zm25.94-5.09c-1.77-1.27-2.7-.85-3.39.21a1.36,1.36,0,0,0-.06,1.24,1.34,1.34,0,0,0,1.18.47A19.17,19.17,0,0,0,440.77,234.21ZM520,179.52a1.91,1.91,0,0,0-.43-0.78,1,1,0,0,0-.79.26,1.37,1.37,0,0,0,.06.72ZM632.34,690.45l-0.81,1a0.89,0.89,0,0,0,.39.24,11.42,11.42,0,0,0,1.09-.55ZM898.48,38.38a1.88,1.88,0,0,0-.73.5,1,1,0,0,0,.29.79,1.45,1.45,0,0,0,.76-0.13ZM847.35,78.33a3.4,3.4,0,0,0-.62.49,0.57,0.57,0,0,0,.07.44,4.12,4.12,0,0,0,.74,0ZM419.63,236.56l-0.31,0,0.12,0.33ZM408,488.7a4.64,4.64,0,0,0-.85-0.28,0.89,0.89,0,0,0-.36.3,1.58,1.58,0,0,0,.63.44A1.43,1.43,0,0,0,408,488.7ZM949.22,187.42l0.14,0.31,0.15-.31h-0.28Z"/><path class="cls-2" d="M288.67,305.31c-2.81,2.23-5.23,3.93-8.31,4.54a12.89,12.89,0,0,0-3.45,1.79c-3.68,2.08-7.32,4.24-11.05,6.22-1.2.64-2.39,1.81-4,1.13a1.85,1.85,0,0,1-.06-0.89c4.16-3.38,8.35-6.72,12.86-10.33a8.22,8.22,0,0,0,5.2-.55C282.41,306,285.34,305.73,288.67,305.31Z"/><path class="cls-2" d="M903.31,7.08L905,6.94c2.09,2.36.59,6,3.13,8.13-1.09,2.72-1.57,5.67-3.75,8.08a3.09,3.09,0,0,1-.9-1.12C904.7,17.18,903.56,12.35,903.31,7.08Z"/><path class="cls-2" d="M871,17l8.49,0.66c1.32,1.18,1.31,2.31.05,3.73H873.1Z"/><path class="cls-2" d="M961.87,165.9a13.83,13.83,0,0,1-1.26,6.81L956,169.09C956.91,166.13,959.66,167.58,961.87,165.9Z"/><path class="cls-2" d="M372.39,650.28a1.62,1.62,0,0,1-.41-0.86c-0.33-.94-0.67-2,0.44-2.57a2,2,0,0,1,1.74.09,1.9,1.9,0,0,1,.72,2.91C374.23,651.06,373.29,650.72,372.39,650.28Z"/><path class="cls-2" d="M860.75,23.33L864,26h-4.88C858.43,24.13,860.26,24.41,860.75,23.33Z"/><path class="cls-2" d="M384.84,664.72l1,2.7c-0.74,1-1.66,1.54-2.43.61C382.44,666.88,383.51,666.11,384.84,664.72Z"/><path class="cls-2" d="M500.57,188.54a11.46,11.46,0,0,1,4.15-2.72,2.58,2.58,0,0,1,.54.41c-0.28.81-.59,1.62-0.92,2.49l-3.89-.32Z"/><path class="cls-2" d="M644.89,101c-0.54,1.92-2.19,2.34-4.58,3.45a7.72,7.72,0,0,1,4.7-3.33Z"/><path class="cls-2" d="M511.53,183.49a6.76,6.76,0,0,1-3.58.74l3-2.77,0.46,2.14Z"/><path class="cls-2" d="M967.24,229.85c1.48-.19,2.2.39,2.15,1.78a1.1,1.1,0,0,1-.41.73,1.53,1.53,0,0,1-1-.48A13.11,13.11,0,0,1,967.24,229.85Z"/><path class="cls-2" d="M500.23,743.48c-0.5.71-1,1.4-1.91,0.68a0.91,0.91,0,0,1-.13-0.86A1.3,1.3,0,0,1,500.23,743.48Z"/><path class="cls-2" d="M957.35,175.6a4,4,0,0,1-1.12,3.57c-1.14-1.43.64-2.27,0.67-3.44l-0.11,0a0.45,0.45,0,0,0,.69,0Z"/><path class="cls-2" d="M1022.74,283.87c0.12-.89-0.21-1.94,1-2.5,0.07,1-.63,1.67-1.1,2.4Z"/><path class="cls-2" d="M352.56,633.06a4.61,4.61,0,0,1,1.36.14,1.67,1.67,0,0,1,.34.82,3.2,3.2,0,0,1-1-.08A2.77,2.77,0,0,1,352.56,633.06Z"/><path class="cls-2" d="M956.66,160.94a1.3,1.3,0,0,1,.27.38,2.33,2.33,0,0,1,.18,1.17,0.86,0.86,0,0,1-1.41-.53l-0.06.08,1.15-1.16Z"/><path class="cls-2" d="M330.94,301.67c-0.31-1.3.43-1.84,1.52-2.15l-0.12-.12c0.15,1.2-1.06,1.47-1.53,2.24Z"/><path class="cls-2" d="M595.07,128.55c-0.09.83,0.35,2-1.24,1.86l0.11,0.11,1.21-2Z"/><path class="cls-2" d="M332.46,299.52l2.2-.92-0.12-.15a1.85,1.85,0,0,1-2.21.94Z"/><path class="cls-2" d="M330.81,301.64l-0.65.22,0.78-.19Z"/><polygon class="cls-2" points="308.89 309.03 308.64 308.89 308.93 308.81 308.89 309.03"/><path class="cls-2" d="M1080.74,320.34a6,6,0,0,1,.32-0.76,1.12,1.12,0,0,1,.39.07l-0.83.6Z"/><path class="cls-2" d="M1080.63,320.26l-2.29.91,0.1,0.09,2.3-.92Z"/><path class="cls-2" d="M874.67,43.34l-0.28-.13,0.4-.25Z"/><path class="cls-2" d="M406.26,519.69a1.74,1.74,0,0,1-.43.66,1.33,1.33,0,0,1-.65-0.27,1,1,0,0,1,.33-0.25,6.25,6.25,0,0,1,.83,0Z"/><path class="cls-2" d="M691.33,81.45l0.52-1,0.4,1,0.1-.09h-1.11Z"/><path class="cls-2" d="M374.52,644.87l-0.26.1,0.16-.43Z"/><path class="cls-2" d="M646.12,99.93a7.71,7.71,0,0,1,.7-0.51,0.75,0.75,0,0,1,.3.17l-1.11.2Z"/><path class="cls-2" d="M606,121.68l0.41-.6-0.51.52Z"/><path class="cls-2" d="M595.14,128.52l-0.76-.3h0a1,1,0,0,0,.21.4,0.82,0.82,0,0,0,.42-0.06Z"/><path class="cls-2" d="M601.66,702.9l0.36-.12,0.09,0.47a1.19,1.19,0,0,1-.37-0.08A0.52,0.52,0,0,1,601.66,702.9Z"/><path class="cls-2" d="M957.48,175.68l0.67-.35-0.42.15-0.37.13Z"/><path class="cls-2" d="M953.79,183.72l0.88-1.93,0-.09-1,1.92Z"/><polygon class="cls-2" points="907.99 4.5 907.88 4.19 908.17 4.22 907.99 4.5"/><polygon class="cls-2" points="866.17 22.6 866.08 22.4 866.11 22.72 866.17 22.6"/><polygon class="cls-2" points="821.95 65.74 822.09 65.51 821.86 65.67 821.95 65.74"/><polygon class="cls-2" points="738.33 67.59 738.55 67.45 738.22 67.54 738.33 67.59"/><path class="cls-2" d="M756.24,68.75l1-1.17-0.15-.08-1,1.08Z"/><polygon class="cls-2" points="658.86 91.17 659.13 91.03 658.89 91.14 658.86 91.17"/><path class="cls-2" d="M658.89,91.14h-0.35l0.37,0.37-0.05-.33Z"/><polygon class="cls-2" points="651.07 97.08 651.25 96.81 651.06 97.04 651.07 97.08"/><path class="cls-2" d="M651.06,97l-0.34.2,0.35-.16v0Z"/><path class="cls-2" d="M646,99.8l-1.12,1.2,0.12,0.12,1.11-1.18Z"/><polygon class="cls-2" points="638.44 105.96 638.54 105.65 638.34 105.86 638.44 105.96"/><path class="cls-2" d="M637.3,106.91l1.14-.95-0.1-.1-1,1v0Z"/><path class="cls-2" d="M637.29,106.88l-0.34.18,0.35-.15v0Z"/><path class="cls-2" d="M634.45,108.86l0.24-.11h-0.33Z"/><path class="cls-2" d="M633.35,110.14l1.1-1.28-0.1-.12-1.1,1.27Z"/><polygon class="cls-2" points="617.89 112.27 618.14 112.19 618.1 112.42 617.89 112.27"/><path class="cls-2" d="M615.55,119.62l-0.24.74c-0.7-.66.1-0.49,0.35-0.63Z"/><polygon class="cls-2" points="605.89 121.6 605.7 121.83 605.99 121.68 605.89 121.6"/><polygon class="cls-2" points="600.9 125.58 601.11 125.41 600.9 125.56 600.9 125.58"/><path class="cls-2" d="M600.9,125.56l-0.34,0,0.36,0.38,0-.33v0Z"/><path class="cls-2" d="M558.6,153l1.24,0,0.14-.07h-1.49Z"/><polygon class="cls-2" points="558.49 152.88 558.51 153.17 558.6 153.01 558.49 152.88"/><path class="cls-2" d="M934.07,161l-1,1,0.07,0.08q0-.58,0-1.16L933,161h1.16Z"/><path class="cls-2" d="M956.9,175.73l-0.22-.25,0.11,0.23Z"/><path class="cls-2" d="M513.43,180.57h-0.35l0.38,0.38-0.06-.33Z"/><polygon class="cls-2" points="954.67 181.79 954.8 181.45 954.63 181.7 954.67 181.79"/><path class="cls-2" d="M470.12,183.71l0.08,0.11Z"/><path class="cls-2" d="M947.87,213.15l0.12-.41-0.21.32Z"/><path class="cls-2" d="M368,261.17h-0.34l0.37,0.36-0.07-.32Z"/><path class="cls-2" d="M1021.58,285.06l1.16-1.19-0.11-.1-1.15,1.18Z"/><polygon class="cls-2" points="327.54 461.41 327.44 461.77 327.53 461.55 327.54 461.41"/><path class="cls-2" d="M351.28,496l-1,1,0.12,0.13,1-1Z"/><path class="cls-2" d="M350.23,496.92l-1.06.89v0.13l1.18-.88Z"/><polygon class="cls-2" points="349.17 497.81 349.07 498.18 349.17 497.94 349.17 497.81"/><path class="cls-2" d="M288.39,551.22l0.35-.69c0.56,0.69-.06.56-0.43,0.61Z"/><path class="cls-2" d="M287.4,552.07l1-.85-0.08-.08-1,.83Z"/><polygon class="cls-2" points="287.36 551.97 287.21 552.27 287.4 552.07 287.36 551.97"/><path class="cls-2" d="M829,673l-1.14,1.14,0.16,0.06q0-.62,0-1.23l-0.1.15,1.18,0Z"/><path class="cls-2" d="M511.42,734.71l-0.26.19,0.23-.09Z"/><polygon class="cls-2" points="470.2 183.82 470.34 183.51 470.12 183.71 470.2 183.82"/><path class="cls-2" d="M755,76.13a2.42,2.42,0,0,1-.23-0.27c0.19-.2.4-0.39,0.6-0.58l0.35,0.53Z"/></g><path class="cls-3" d="M257.78,613.71c-29.14-14.75-65.22-17.24-89-41.46a1.5,1.5,0,0,0-2.12,2.12c24.1,24.5,60.21,27,89.65,41.93,1.72,0.87,3.24-1.72,1.51-2.59h0Z"/><path class="cls-3" d="M166.41,571.7c-4.17-4.76-7.45-10.82-6.94-17.34a14.51,14.51,0,0,1,10.89-13.19c1.88-.44,1.08-3.34-0.8-2.89a17.35,17.35,0,0,0-12.89,14.33c-1.28,7.92,2.55,15.42,7.62,21.22,1.27,1.46,3.39-.67,2.12-2.12h0Z"/><path class="cls-3" d="M170.53,541.05a49.68,49.68,0,0,1,14.93,3.25c1.8,0.69,2.59-2.21.8-2.89a52.29,52.29,0,0,0-15.72-3.36c-1.93-.11-1.92,2.89,0,3h0Z"/><path class="cls-3" d="M185,545c4,3.41,8.79,5,13.72,6.73l19.57,6.69c1.83,0.63,2.62-2.27.8-2.89l-16-5.48c-5.5-1.88-11.44-3.35-16-7.17-1.47-1.24-3.6.87-2.12,2.12h0Z"/><path class="cls-3" d="M218.4,560.24c2.8,1.36,20.59,9.14,19.53,1.41-0.26-1.9-3.15-1.09-2.89.8-0.08-.61-6.69-1.59-7.56-1.84a47.84,47.84,0,0,1-7.56-3c-1.73-.84-3.25,1.75-1.51,2.59h0Z"/><path class="cls-3" d="M237.47,561.15c-1.63-6-6.68-9.43-12.07-12-8.87-4.26-18-8.1-26.93-12.13-1.75-.79-3.27,1.8-1.51,2.59l22.41,10.07c5.91,2.66,13.35,5.37,15.21,12.28a1.5,1.5,0,0,0,2.89-.8h0Z"/><path class="cls-3" d="M199.53,537.15a35.65,35.65,0,0,1-6.41-18.3c-0.12-1.92-3.12-1.93-3,0a38.66,38.66,0,0,0,6.82,19.82c1.09,1.58,3.69.08,2.59-1.51h0Z"/><path class="cls-3" d="M193.68,517a9.45,9.45,0,0,1,8.18-11c1.91-.17,1.93-3.17,0-3a12.5,12.5,0,0,0-11.07,14.76c0.38,1.89,3.27,1.09,2.89-.8h0Z"/><path class="cls-3" d="M203.89,506.56a62.23,62.23,0,0,0,26.65,6,1.5,1.5,0,0,0,0-3A58.6,58.6,0,0,1,205.41,504c-1.74-.81-3.26,1.77-1.51,2.59h0Z"/><path class="cls-3" d="M230.75,512.44a42.85,42.85,0,0,1,16.44,10.4,1.5,1.5,0,0,0,2.12-2.12,46.3,46.3,0,0,0-17.76-11.17c-1.83-.64-2.61,2.26-0.8,2.89h0Z"/><path class="cls-3" d="M231.38,509.4a30.6,30.6,0,0,1-10.88-12.66c-0.82-1.75-3.41-.22-2.59,1.51a33.47,33.47,0,0,0,12,13.73c1.61,1.07,3.12-1.53,1.51-2.59h0Z"/><path class="cls-3" d="M220.4,495.53a31.71,31.71,0,0,1,8.38-18.45c1.31-1.42-.81-3.54-2.12-2.12a35.14,35.14,0,0,0-9.26,20.57c-0.2,1.92,2.8,1.9,3,0h0Z"/><path class="cls-3" d="M231.15,477.53a20.38,20.38,0,0,1,23.43,8.06c1.06,1.6,3.66.1,2.59-1.51a23.44,23.44,0,0,0-26.82-9.44c-1.83.59-1,3.49,0.8,2.89h0Z"/><path class="cls-3" d="M255.5,485.86a82.19,82.19,0,0,0,20.14,12.59c1.75,0.77,3.28-1.82,1.51-2.59a79.56,79.56,0,0,1-19.53-12.12c-1.47-1.24-3.6.87-2.12,2.12h0Z"/><path class="cls-3" d="M245.91,477.82c7.7-2.42,12-13.59,20.69-12.48,1.91,0.25,1.89-2.76,0-3-9.78-1.26-13.29,10-21.48,12.59-1.84.58-1.05,3.47,0.8,2.89h0Z"/><path class="cls-3" d="M267.22,465.06a43.91,43.91,0,0,1,20,1.86c6.76,2.31,11.48,7.15,17.76,10.15,1.73,0.83,3.26-1.76,1.51-2.59-6.48-3.1-11.51-8.07-18.47-10.45a45.82,45.82,0,0,0-20.85-2c-1.89.25-1.91,3.25,0,3h0Z"/><path class="cls-3" d="M305.83,478.32a88.63,88.63,0,0,1,35.13,11c11,6.24,20.87,14.46,31,22,1.55,1.16,3-1.45,1.51-2.59-11-8.22-21.75-17.31-34-23.65a92.5,92.5,0,0,0-33.62-9.77c-1.92-.19-1.91,2.81,0,3h0Z"/><path class="cls-3" d="M255.31,616.89a31.73,31.73,0,0,0,19.59,17.05c1.85,0.57,2.64-2.32.8-2.89a28.83,28.83,0,0,1-17.8-15.67c-0.81-1.75-3.4-.23-2.59,1.51h0Z"/><path class="cls-3" d="M242.57,636.55a162.5,162.5,0,0,1,16.75,8.39c5.08,2.94,9.74,6.7,14.91,9.46,9.49,5.07,19.54.84,28.42-3.51,1.73-.85.21-3.44-1.51-2.59-4.9,2.41-10,4.84-15.48,5.38-5.94.58-10.28-2-15-5.14A163.43,163.43,0,0,0,244.09,634c-1.75-.76-3.28,1.82-1.51,2.59h0Z"/><path class="cls-3" d="M303.4,652.29c5.86-3.45,12.44-3.55,19-4.14a61.58,61.58,0,0,0,15.16-3.5c13.24-4.63,27-3.72,40.63-1.47,1.89,0.31,2.7-2.58.8-2.89-13.49-2.23-27.49-3.41-40.7.95a81.56,81.56,0,0,1-19.9,4.23c-5.82.46-11.41,1.23-16.53,4.24a1.5,1.5,0,0,0,1.51,2.59h0Z"/><path class="cls-3" d="M171.21,551.05a12.7,12.7,0,0,0-5.75,6.6c-0.71,1.79,2.19,2.57,2.89.8a9.51,9.51,0,0,1,4.37-4.81c1.7-.92.18-3.51-1.51-2.59h0Z"/><path class="cls-3" d="M289.88,465.64c6-6.43,9.12-15.12,14.18-22.28A106.3,106.3,0,0,1,323.6,422.6c1.49-1.22-.64-3.34-2.12-2.12a109.56,109.56,0,0,0-18.06,18.69c-5.78,7.64-9.18,17.37-15.67,24.34-1.31,1.41.8,3.54,2.12,2.12h0Z"/><path class="cls-3" d="M320.57,424.3a99.24,99.24,0,0,1,29.48-30c1.61-1.06.11-3.66-1.51-2.59A102.86,102.86,0,0,0,318,422.79c-1,1.64,1.56,3.14,2.59,1.51h0Z"/><path class="cls-3" d="M349.52,394.51a53.88,53.88,0,0,1,25.35-19.07c1.8-.65,1-3.55-0.8-2.89A57.39,57.39,0,0,0,346.93,393c-1.14,1.56,1.46,3.06,2.59,1.51h0Z"/><path class="cls-3" d="M375.54,374.54c13-8.59,27.22-14.57,41.79-20.08a160.12,160.12,0,0,1,47.88-10.38c1.92-.11,1.93-3.11,0-3a162.82,162.82,0,0,0-48.68,10.48C401.73,357.17,387.3,363.21,374,372c-1.61,1.06-.1,3.66,1.51,2.59h0Z"/><path class="cls-3" d="M464.82,344.21a18,18,0,0,1,11,8.74c0.94,1.69,3.53.18,2.59-1.51a21.07,21.07,0,0,0-12.84-10.11,1.5,1.5,0,0,0-.8,2.89h0Z"/><path class="cls-3" d="M476.49,353.88a33.47,33.47,0,0,1-.55,15.94,1.5,1.5,0,0,0,2.89.8,36.91,36.91,0,0,0,.55-17.53c-0.39-1.89-3.28-1.09-2.89.8h0Z"/><path class="cls-3" d="M477.26,369.89c-12.94,1.67-26.07,3.33-38.3,8.1-12,4.67-23.68,15.1-37.28,13.06-1.89-.28-2.7,2.61-0.8,2.89,12.28,1.85,22.4-5.22,32.92-10.41,13.55-6.69,28.65-8.73,43.46-10.64,1.89-.24,1.91-3.25,0-3h0Z"/><path class="cls-3" d="M475.34,372.69c2.78,3.34,7.09,5.54,9.41,9.22,3.82,6.09-.13,14.23-2,20.46-0.55,1.86,2.35,2.65,2.89.8,1.83-6.19,5.45-14,2.94-20.49-2-5.26-7.68-7.93-11.14-12.11-1.23-1.49-3.35.65-2.12,2.12h0Z"/><path class="cls-3" d="M484.53,402.59a102.39,102.39,0,0,0-59.67,19.27c-1.55,1.12-.06,3.72,1.51,2.59a99.63,99.63,0,0,1,58.16-18.86,1.5,1.5,0,0,0,0-3h0Z"/><path class="cls-3" d="M484,405.81c10.49,3.88,6.3,16.33,1.36,22.86-1.17,1.54,1.44,3,2.59,1.51,6.34-8.36,9.2-22.7-3.15-27.26-1.81-.67-2.6,2.23-0.8,2.89h0Z"/><path class="cls-3" d="M485.21,428.28l-34.7,15c-8.47,3.67-20,6.49-25.28,14.72-1,1.63,1.55,3.14,2.59,1.51,2.85-4.47,7.65-6.48,12.33-8.51l15.52-6.72,31-13.44c1.77-.76.24-3.35-1.51-2.59h0Z"/><path class="cls-3" d="M486.64,430.89c5.35,12.17-1.36,33.77-16.78,34.06-1.93,0-1.93,3,0,3,17.92-.34,25.64-24.32,19.37-38.58-0.78-1.76-3.36-.24-2.59,1.51h0Z"/><path class="cls-3" d="M468.88,465.82c-16.21,4.25-31.14,9.14-43.53,20.87-3.6,3.41-7.21,6.62-12,8.21-4.3,1.42-8.89,1.75-13.27,2.83-8.89,2.17-17.13,6.33-25.26,10.42-1.73.87-.21,3.46,1.51,2.59,8.45-4.25,17-8.5,26.3-10.52,8-1.73,14.85-2.65,21.26-8.11,6.67-5.67,12.41-11.33,20.47-15.1s16.74-6,25.33-8.29a1.5,1.5,0,0,0-.8-2.89h0Z"/><path class="cls-3" d="M484.12,459.15c1.14,4.15,3.59,7.26,6.37,10.46,4,4.58,8,9.11,12,13.67,7.86,8.92,16.44,17.57,23.06,27.47,1.07,1.6,3.67.1,2.59-1.51-5.73-8.56-12.94-16.05-19.73-23.76l-10.78-12.23c-4-4.51-9-8.95-10.67-14.9a1.5,1.5,0,0,0-2.89.8h0Z"/><path class="cls-3" d="M525.06,510.59c1,3.32,3.16,5.36,5.76,7.54a52.85,52.85,0,0,1,9.58,10.26,50.91,50.91,0,0,1,9,26.43c0.1,1.92,3.1,1.93,3,0a54.28,54.28,0,0,0-6.95-24.06,53.27,53.27,0,0,0-7-9.56c-3.26-3.56-9.12-6.62-10.51-11.41a1.5,1.5,0,0,0-2.89.8h0Z"/><path class="cls-3" d="M533.48,544.09c2.76,20.73,7.67,42.42,5.29,63.37-0.22,1.92,2.78,1.9,3,0,2.38-20.95-2.53-42.65-5.29-63.37-0.25-1.89-3.25-1.91-3,0h0Z"/><path class="cls-3" d="M539,608.17c0.7,9.69-.87,19.3-2.09,28.89-1.34,10.52-2.62,21-5.55,31.26a1.5,1.5,0,0,0,2.89.8c2.84-9.91,4.13-20.11,5.43-30.31s3.06-20.37,2.32-30.64c-0.14-1.91-3.14-1.93-3,0h0Z"/><path class="cls-3" d="M532.87,667.82c-4.56,5.81-8.66,13.67-16.78,14.59-9.73,1.1-16.59-6.86-19.22-15.36-0.57-1.84-3.47-1.05-2.89.8,2.69,8.72,9,16.5,18.54,17.57,11.07,1.24,16.53-7.88,22.48-15.47,1.18-1.5-.93-3.64-2.12-2.12h0Z"/><path class="cls-3" d="M494.39,664.35c5.41-24.27,3.76-48.37-1.35-72.53-0.4-1.89-3.29-1.09-2.89.8,5,23.66,6.64,47.17,1.35,70.94-0.42,1.88,2.47,2.68,2.89.8h0Z"/><path class="cls-3" d="M490.15,590.12a7.58,7.58,0,0,0-5,3.2,1.51,1.51,0,0,0,.54,2.05,1.53,1.53,0,0,0,2.05-.54,4.7,4.7,0,0,1,3.24-1.82,1.51,1.51,0,0,0,1-1.85,1.54,1.54,0,0,0-1.85-1h0Z"/><path class="cls-3" d="M486.11,598.37c4.74,23-2.53,46.5,1.5,69.63,0.33,1.9,3.22,1.09,2.89-.8-4-23.12,3.25-46.55-1.5-69.63-0.39-1.89-3.28-1.09-2.89.8h0Z"/><path class="cls-3" d="M487.59,668.16c0.9,9.22-8.41,13.55-16.34,11.93-7-1.43-12.6-6.32-17.81-10.94-1.44-1.28-3.57.84-2.12,2.12,7.2,6.39,15.67,13.29,26,12.09,7.68-.9,14.1-7.2,13.31-15.21-0.19-1.9-3.19-1.92-3,0h0Z"/><path class="cls-3" d="M452.34,668.85a115.63,115.63,0,0,1-5.9-48.53c1.18-12.73,3.69-26.2-3.26-37.78a1.5,1.5,0,0,0-2.59,1.51c7.58,12.62,3.15,27.8,2.46,41.53a117.2,117.2,0,0,0,6.4,44.06c0.63,1.81,3.52,1,2.89-.8h0Z"/><path class="cls-3" d="M403.31,576.89a67.4,67.4,0,0,1,6.49,27.42c0.15,8.45-1.33,16.82-1.49,25.26-0.23,12,2.86,24.89,13.55,31.76,1.63,1,3.14-1.55,1.51-2.59-13.52-8.69-12.56-26.39-11.33-40.39,1.32-15.12.36-29-6.14-43-0.82-1.75-3.4-.23-2.59,1.51h0Z"/><path class="cls-3" d="M421.87,662.12a28.3,28.3,0,0,0,26.5,9.31c1.9-.33,1.09-3.22-0.8-2.89A25.23,25.23,0,0,1,424,660c-1.27-1.46-3.38.67-2.12,2.12h0Z"/><path class="cls-3" d="M373.4,511.86a139.35,139.35,0,0,0,.47,77.34c0.55,1.85,3.44,1.06,2.89-.8a136.31,136.31,0,0,1-.47-75.75,1.5,1.5,0,0,0-2.89-.8h0Z"/><path class="cls-3" d="M374.76,589.55c1,17.25,2.39,34.71,11.23,50a70.23,70.23,0,0,0,14.44,17.6c4.25,3.72,9.94,8,15.58,4.6a1.5,1.5,0,0,0-1.51-2.59c-6.25,3.73-14.5-6.19-18.19-10.37a67.73,67.73,0,0,1-10.68-16.46c-6.15-13.38-7-28.28-7.87-42.76-0.11-1.92-3.11-1.93-3,0h0Z"/><path class="cls-3" d="M538.26,556.27a528.52,528.52,0,0,0,57.18,9.22c20,2.09,40.19,2.53,59.92,6.66,35.78,7.49,69.13,24.13,105.74,28,1.92,0.2,1.9-2.8,0-3-36.91-3.91-70.54-21-106.7-28.26-18.49-3.7-37.37-4.26-56.08-6.12a520.86,520.86,0,0,1-59.24-9.4c-1.88-.41-2.69,2.48-0.8,2.89h0Z"/><path class="cls-3" d="M533,673.68c23,10.21,46,20.46,70,28.05,11.2,3.54,22.59,6.06,34,8.78s22.72,6.27,31.47,14.4c1.41,1.31,3.54-.8,2.12-2.12-16.31-15.17-41-16.25-61.43-22.31-25.68-7.62-50.22-18.53-74.65-29.4-1.75-.78-3.28,1.81-1.51,2.59h0Z"/><path class="cls-3" d="M160.52,570.72c-8.17,13-22.49,20.93-35,29.23q-20.78,13.8-41.9,27.07Q41.39,653.56-2.14,678l2.2,0.9-1.41-5.08a1.5,1.5,0,0,0-2.89.8l1.41,5.08a1.52,1.52,0,0,0,2.2.9q45.18-25.35,89-53,21.91-13.82,43.44-28.21c11.49-7.68,23.76-15.15,31.27-27.12,1-1.64-1.57-3.15-2.59-1.51h0Z"/><path class="cls-3" d="M255.19,614.29c-4.53,12.38-14.5,21.15-24.86,28.77s-20.67,14.64-30.27,23c-21.77,19-40.68,41.15-63.64,58.81-1.51,1.16,0,3.77,1.51,2.59,23.64-18.18,43-41,65.56-60.42,10.43-9,22-16.33,32.81-24.79,9.37-7.33,17.62-15.84,21.78-27.19,0.66-1.82-2.23-2.6-2.89-.8h0Z"/><path class="cls-3" d="M255.17,549.3a8.94,8.94,0,0,0,9.25-7.43c0.27-1.89-2.62-2.7-2.89-.8a6,6,0,0,1-6.35,5.22c-1.93-.12-1.92,2.88,0,3h0Z"/><path class="cls-3" d="M268.26,512.22a7.75,7.75,0,0,0,5.75-5,1.51,1.51,0,0,0-1-1.85,1.53,1.53,0,0,0-1.85,1,4.75,4.75,0,0,1-3.65,2.89c-1.89.36-1.09,3.25,0.8,2.89h0Z"/><path class="cls-3" d="M291.2,489a10.54,10.54,0,0,0,8.57-4.81c1.07-1.62-1.53-3.12-2.59-1.51a7.39,7.39,0,0,1-6,3.33c-1.93.06-1.93,3.06,0,3h0Z"/><path class="cls-3" d="M229.31,590.82a7.75,7.75,0,0,0,3.42-6.66c-0.07-1.93-3.07-1.93-3,0a4.67,4.67,0,0,1-1.93,4.06c-1.57,1.1-.07,3.7,1.51,2.59h0Z"/><path class="cls-3" d="M431.07,357.76a9.11,9.11,0,0,0,4.78,9.56c1.72,0.87,3.24-1.71,1.51-2.59a6.08,6.08,0,0,1-3.4-6.17c0.27-1.89-2.62-2.7-2.89-.8h0Z"/><path class="cls-3" d="M461,386.17a15.69,15.69,0,0,0,2.86,9.46c1.1,1.57,3.71.07,2.59-1.51a12.94,12.94,0,0,1-2.45-7.94c0-1.93-3-1.93-3,0h0Z"/><path class="cls-3" d="M466.53,419.14a7.24,7.24,0,0,0,3.25,8.33,1.5,1.5,0,0,0,1.51-2.59,4.21,4.21,0,0,1-1.87-4.95c0.58-1.85-2.32-2.64-2.89-.8h0Z"/><path class="cls-3" d="M459.08,455.9l2,6c0.6,1.82,3.5,1,2.89-.8l-2-6c-0.6-1.82-3.5-1-2.89.8h0Z"/><path class="cls-3" d="M382.49,610.07a14.18,14.18,0,0,0,11.18,1.77c1.87-.47,1.08-3.36-0.8-2.89a11.11,11.11,0,0,1-8.87-1.47c-1.63-1-3.14,1.56-1.51,2.59h0Z"/><path class="cls-3" d="M418.45,635.46a16.67,16.67,0,0,0,10.09,2.19c1.9-.19,1.92-3.2,0-3a13.92,13.92,0,0,1-8.58-1.78,1.5,1.5,0,0,0-1.51,2.59h0Z"/><path class="cls-3" d="M460.92,644.24l4.66-1.34a1.5,1.5,0,0,0-.8-2.89l-4.66,1.34a1.5,1.5,0,0,0,.8,2.89h0Z"/><path class="cls-3" d="M511.87,629a24.55,24.55,0,0,0,11.07-1.34c1.8-.65,1-3.55-0.8-2.89A22.58,22.58,0,0,1,511.87,626c-1.92-.21-1.9,2.8,0,3h0Z"/><path class="cls-3" d="M460.08,538.8A37.3,37.3,0,0,1,467,557.15c0.18,1.91,3.18,1.92,3,0a40.28,40.28,0,0,0-7.3-19.86c-1.11-1.56-3.71-.06-2.59,1.51h0Z"/><path class="cls-3" d="M424.32,540a18,18,0,0,1,5.16,17.67c-0.47,1.87,2.43,2.67,2.89.8a21.12,21.12,0,0,0-5.93-20.59c-1.4-1.33-3.52.78-2.12,2.12h0Z"/><path class="cls-3" d="M382.1,537.27a20.44,20.44,0,0,1,4.69,12.9,1.5,1.5,0,0,0,3,0,23.77,23.77,0,0,0-5.57-15c-1.23-1.49-3.34.64-2.12,2.12h0Z"/><path class="cls-3" d="M505.09,539.28a15.38,15.38,0,0,1,4.61,13.48c-0.29,1.89,2.6,2.7,2.89.8a18.53,18.53,0,0,0-5.38-16.4,1.5,1.5,0,0,0-2.12,2.12h0Z"/><path class="cls-3" d="M206.14,518.25a8.66,8.66,0,0,1,4,1.65,1.55,1.55,0,0,0,2.12,0,1.51,1.51,0,0,0,0-2.12,11.63,11.63,0,0,0-5.32-2.42,1.55,1.55,0,0,0-1.85,1,1.51,1.51,0,0,0,1,1.85h0Z"/><path class="cls-3" d="M231.79,495.44a12.63,12.63,0,0,0,6.74,2.28c1.93,0.1,1.92-2.9,0-3a9.74,9.74,0,0,1-5.23-1.87c-1.58-1.12-3.08,1.48-1.51,2.59h0Z"/><path class="cls-3" d="M263.78,482.79l1.33,0.67a1.54,1.54,0,0,0,2.05-.54,1.51,1.51,0,0,0-.54-2.05l-1.33-.67a1.54,1.54,0,0,0-2.05.54,1.51,1.51,0,0,0,.54,2.05h0Z"/><path class="cls-3" d="M442.5,347.45A407.89,407.89,0,0,0,417.25,280c-5.1-10.63-11-20.81-16.41-31.26-5.89-11.35-10.64-23.38-9-36.39,0.24-1.91-2.76-1.89-3,0-3,23.42,13.54,44.36,23.4,64.21a402.85,402.85,0,0,1,27.36,71.71,1.5,1.5,0,0,0,2.89-.8h0Z"/><path class="cls-3" d="M355.42,389.6c-18.2-42.51-35.25-84.93-46.28-130-0.46-1.87-3.35-1.08-2.89.8,11.09,45.27,28.28,87.93,46.58,130.67,0.76,1.77,3.34.24,2.59-1.51h0Z"/><path class="cls-4" d="M1122,398.28c56.59-46.5,114.09-91.95,173.55-134.75q43.72-31.47,88.89-60.86c30.23-19.59,60.82-39.41,92.89-55.87,35.87-18.41,75.08-31.58,115.79-31a1.5,1.5,0,0,0,0-3c-72.77-1-136.29,40.25-195.42,77.82-62.21,39.53-122.07,82.62-180.38,127.68q-49.35,38.14-97.44,77.89c-1.49,1.23.64,3.34,2.12,2.12h0Z"/><path class="cls-4" d="M-55.69,693.18c74.51-52.83,172.79-68.92,260.59-44.25,46.53,13.08,86,39.32,126,65.52,36.34,23.8,76.33,50.39,121.11,52.18,45.29,1.81,93.67-14.32,129.35-42.13,1.52-1.19-.62-3.29-2.12-2.12-33.48,26.09-78.28,41.31-120.69,41.38-46.41.08-87.17-26.43-124.72-51-39.11-25.57-77.67-51.6-122.86-65.21A313.31,313.31,0,0,0,79.49,637.46C30.49,644-16.83,662-57.21,690.59c-1.56,1.11-.07,3.71,1.51,2.59h0Z"/><path class="cls-4" d="M610.67,703.35l-50.22-11c-1.88-.41-2.69,2.48-0.8,2.89l50.22,11c1.88,0.41,2.69-2.48.8-2.89h0Z"/><path class="cls-4" d="M560.2,693.62a768.2,768.2,0,0,0,104.06-6.41c1.89-.25,1.91-3.25,0-3a768.2,768.2,0,0,1-104.06,6.41,1.5,1.5,0,0,0,0,3h0Z"/><path class="cls-4" d="M607.9,708c17.68-5.42,35.08-11.72,52.76-17.14,1.84-.56,1.06-3.46-0.8-2.89-17.68,5.42-35.08,11.72-52.76,17.14-1.84.56-1.06,3.46,0.8,2.89h0Z"/><path class="cls-4" d="M661.42,688.78a414.91,414.91,0,0,0-32.89,57.47c-0.82,1.74,1.77,3.26,2.59,1.51A414.91,414.91,0,0,1,664,690.29c1.09-1.6-1.51-3.1-2.59-1.51h0Z"/><path class="cls-4" d="M612.66,707.6c5.33,15.81,9.67,32.17,9.84,49a1.5,1.5,0,0,0,3,0c-0.17-17-4.53-33.69-9.94-49.75-0.61-1.82-3.51-1-2.89.8h0Z"/></svg>